<svg width="273" height="141" viewBox="0 0 273 141" fill="none" xmlns="http://www.w3.org/2000/svg">
<path d="M27.0788 95.5029C23.1892 95.5029 18.7967 95.1676 13.9012 94.497C11.2187 94.1617 9.37456 93.4575 8.36864 92.3845C7.36272 91.3116 6.92682 89.568 7.06094 87.1538C7.53037 80.5147 8.63688 72.3332 10.3805 62.6093C12.1241 52.8183 14.2365 43.3962 16.7178 34.3429C17.1872 32.6664 18.1261 31.4928 19.5344 30.8222C20.9427 30.1516 22.7868 29.8163 25.0669 29.8163C29.1577 29.8163 31.203 30.9563 31.203 33.2364C31.203 34.1752 31.0019 35.2482 30.5995 36.4553C28.8559 41.8202 27.1123 49.0293 25.3687 58.0826C23.6251 67.0689 22.3845 75.6527 21.6468 83.8342C23.6586 84.0354 25.9387 84.136 28.4871 84.136C40.2228 84.136 48.9743 80.5817 54.7416 73.4732C60.5759 66.3647 63.4931 56.8755 63.4931 45.0057C63.4931 37.0254 61.213 30.8557 56.6529 26.4967C52.0927 22.1377 45.6548 19.9582 37.3392 19.9582C31.9743 19.9582 26.6429 20.7965 21.345 22.473C16.1142 24.1496 11.3864 26.3626 7.16153 29.1121C6.28974 29.7157 5.35088 30.0174 4.34495 30.0174C3.20491 30.0174 2.29958 29.548 1.62897 28.6092C0.958354 27.6032 0.623047 26.3961 0.623047 24.9878C0.623047 23.3784 0.891293 22.0707 1.42778 21.0647C1.96428 19.9918 2.8696 19.0194 4.14377 18.1476C8.77101 14.9957 14.203 12.615 20.4397 11.0055C26.6764 9.329 32.6784 8.49073 38.4457 8.49073C46.6272 8.49073 53.7021 9.93255 59.6706 12.8162C65.6391 15.6328 70.2328 19.7906 73.4517 25.2896C76.6707 30.7886 78.2802 37.4277 78.2802 45.2068C78.2802 55.3331 76.2683 64.1852 72.2446 71.7632C68.2209 79.274 62.3531 85.1084 54.641 89.2662C46.9289 93.424 37.7415 95.5029 27.0788 95.5029Z" fill="black"/>
<path d="M91.1732 95.5029C88.6249 95.5029 86.8142 94.1617 85.7413 91.4792C84.7353 88.7968 84.2324 84.5048 84.2324 78.6034C84.2324 69.8854 85.473 61.6034 87.9543 53.7572C88.5578 51.8124 89.5302 50.4041 90.8715 49.5323C92.2797 48.5935 94.2245 48.124 96.7058 48.124C98.047 48.124 98.9859 48.2917 99.5224 48.627C100.059 48.9623 100.327 49.5994 100.327 50.5382C100.327 51.6112 99.8242 54.0254 98.8182 57.7809C98.1476 60.4633 97.6111 62.8105 97.2088 64.8223C96.8064 66.8342 96.4711 69.3154 96.2028 72.2661C98.4159 66.4988 100.897 61.8045 103.647 58.1832C106.396 54.5619 109.079 51.98 111.694 50.4376C114.376 48.8952 116.824 48.124 119.037 48.124C123.396 48.124 125.576 50.3035 125.576 54.6625C125.576 55.5343 125.274 57.6467 124.67 60.9998C124.134 63.6823 123.866 65.3588 123.866 66.0294C123.866 68.3766 124.704 69.5501 126.38 69.5501C128.258 69.5501 130.672 68.0748 133.623 65.1241C134.495 64.2523 135.4 63.8164 136.339 63.8164C137.211 63.8164 137.881 64.2188 138.351 65.0235C138.887 65.7612 139.156 66.7671 139.156 68.0413C139.156 70.5225 138.485 72.4673 137.144 73.8756C135.266 75.8204 133.053 77.4969 130.505 78.9052C128.023 80.2464 125.375 80.917 122.558 80.917C119.004 80.917 116.288 80.0117 114.41 78.2011C112.599 76.3904 111.694 73.9427 111.694 70.8578C111.694 69.8519 111.795 68.846 111.996 67.8401C112.13 66.4988 112.197 65.5935 112.197 65.1241C112.197 64.0511 111.828 63.5146 111.09 63.5146C110.085 63.5146 108.743 64.6547 107.067 66.9347C105.457 69.1478 103.848 72.0985 102.238 75.7868C100.629 79.4752 99.3212 83.3648 98.3153 87.4555C97.5776 90.6074 96.7058 92.7534 95.6999 93.8934C94.761 94.9664 93.2521 95.5029 91.1732 95.5029Z" fill="black"/>
<path d="M142.986 41.4849C140.169 41.4849 138.057 40.8479 136.649 39.5737C135.24 38.2325 134.536 36.3883 134.536 34.0411C134.536 31.694 135.442 29.7492 137.252 28.2068C139.13 26.5973 141.444 25.7926 144.193 25.7926C146.674 25.7926 148.686 26.3961 150.229 27.6032C151.771 28.8103 152.542 30.5204 152.542 32.7334C152.542 35.4159 151.67 37.5618 149.927 39.1713C148.183 40.7137 145.87 41.4849 142.986 41.4849ZM142.181 95.5029C137.822 95.5029 134.637 93.9605 132.625 90.8757C130.68 87.7908 129.708 83.7001 129.708 78.6034C129.708 75.5857 130.077 71.7296 130.814 67.0353C131.619 62.274 132.625 57.8479 133.832 53.7572C134.436 51.6112 135.24 50.1359 136.246 49.3311C137.252 48.5264 138.862 48.124 141.075 48.124C144.495 48.124 146.205 49.2641 146.205 51.5442C146.205 53.2207 145.568 57.1103 144.294 63.2128C142.684 70.5896 141.88 75.5857 141.88 78.2011C141.88 80.2129 142.148 81.7553 142.684 82.8283C143.221 83.9013 144.126 84.4378 145.4 84.4378C146.607 84.4378 148.116 83.5995 149.927 81.923C151.738 80.2464 154.152 77.5975 157.17 73.9762C157.974 73.0373 158.88 72.5679 159.885 72.5679C160.757 72.5679 161.428 72.9703 161.897 73.775C162.434 74.5797 162.702 75.6863 162.702 77.0945C162.702 79.777 162.065 81.8559 160.791 83.3313C154.152 91.4457 147.949 95.5029 142.181 95.5029Z" fill="black"/>
<path d="M205.339 64.4199C205.54 64.3529 205.875 64.3193 206.345 64.3193C207.351 64.3193 208.122 64.6547 208.659 65.3253C209.195 65.9959 209.463 66.9012 209.463 68.0413C209.463 70.1202 209.061 71.7632 208.256 72.9703C207.451 74.1103 206.244 74.9486 204.635 75.4851C201.55 76.491 198.264 76.994 194.777 76.994C191.826 76.994 189.043 76.5916 186.428 75.7868C184.483 78.9387 182.337 82.1912 179.99 85.5443C177.307 89.3668 174.994 91.9822 173.049 93.3905C171.104 94.7988 168.891 95.5029 166.41 95.5029C163.66 95.5029 161.481 94.4299 159.871 92.284C158.329 90.138 157.357 86.7514 156.954 82.1242C156.149 72.7356 155.747 64.5205 155.747 57.4791V53.9584C155.814 51.7453 156.418 50.2029 157.558 49.3311C158.698 48.4593 160.408 48.0234 162.688 48.0234C164.432 48.0234 165.706 48.4258 166.51 49.2305C167.382 49.9682 167.818 51.2424 167.818 53.053C167.818 60.7651 168.288 70.7908 169.226 83.1301C173.25 77.1616 176.268 72.4002 178.28 68.846C177.274 66.9012 176.771 64.5876 176.771 61.9051C176.771 59.625 177.274 57.412 178.28 55.2661C179.286 53.1201 180.66 51.3765 182.404 50.0353C184.148 48.694 186.126 48.0234 188.339 48.0234C190.284 48.0234 191.86 48.7276 193.067 50.1359C194.274 51.4771 194.877 53.4554 194.877 56.0708C194.877 59.0886 194.073 62.5422 192.463 66.4318C195.012 66.2977 198.398 65.7947 202.623 64.9229L205.339 64.4199Z" fill="black"/>
<path d="M238.858 72.5679C239.73 72.5679 240.401 72.9703 240.87 73.775C241.407 74.5797 241.675 75.6863 241.675 77.0945C241.675 79.777 241.038 81.8559 239.763 83.3313C236.88 86.8855 233.728 89.8027 230.308 92.0828C226.955 94.3629 223.132 95.5029 218.84 95.5029C212.939 95.5029 208.546 92.8204 205.663 87.4555C202.846 82.0906 201.438 75.1498 201.438 66.633C201.438 58.4515 202.477 49.1299 204.556 38.6684C206.702 28.2068 209.821 19.2206 213.911 11.7097C218.069 4.1988 222.998 0.443359 228.698 0.443359C231.917 0.443359 234.432 1.95224 236.243 4.97001C238.12 7.92071 239.059 12.1791 239.059 17.7452C239.059 25.7255 236.846 34.98 232.42 45.5086C227.994 56.0373 221.992 66.4653 214.414 76.7928C214.884 79.5423 215.655 81.5206 216.728 82.7277C217.801 83.8678 219.209 84.4378 220.953 84.4378C223.702 84.4378 226.117 83.6666 228.195 82.1242C230.274 80.5147 232.923 77.7987 236.142 73.9762C236.947 73.0373 237.852 72.5679 238.858 72.5679ZM226.485 10.402C224.943 10.402 223.199 13.185 221.255 18.7511C219.31 24.3172 217.6 31.2245 216.124 39.4731C214.649 47.7216 213.844 55.6349 213.71 63.2128C218.471 55.3667 222.26 47.5205 225.077 39.6743C227.894 31.761 229.302 24.5519 229.302 18.047C229.302 12.9503 228.363 10.402 226.485 10.402Z" fill="black"/>
<path d="M268.751 48.124C270.294 48.124 271.367 48.3252 271.97 48.7276C272.574 49.1299 272.876 49.8006 272.876 50.7394C272.876 52.3489 272.004 58.0826 270.26 67.9407C268.718 77.3963 267.812 82.996 267.544 84.7395C265.063 101.974 261.643 115.621 257.284 125.681C252.925 135.74 247.124 140.769 239.881 140.769C236.461 140.769 233.678 139.696 231.532 137.55C229.386 135.471 228.313 132.722 228.313 129.302C228.313 126.15 229.017 122.931 230.426 119.645C231.901 116.359 234.584 112.57 238.473 108.278C242.43 104.053 247.996 99.1913 255.171 93.6922L255.473 91.3786C255.943 88.8974 256.479 85.3431 257.083 80.7159C255.741 85.5443 253.864 89.2327 251.449 91.781C249.035 94.2623 246.487 95.5029 243.804 95.5029C240.787 95.5029 238.305 94.1281 236.361 91.3786C234.483 88.562 233.544 85.0749 233.544 80.917C233.544 75.8874 233.879 71.2937 234.55 67.1359C235.221 62.9111 236.327 58.4515 237.87 53.7572C238.54 51.7453 239.479 50.3035 240.686 49.4317C241.893 48.5599 243.804 48.124 246.42 48.124C247.895 48.124 248.901 48.3587 249.438 48.8282C250.041 49.2976 250.343 50.0017 250.343 50.9406C250.343 51.4771 249.974 53.2877 249.236 56.3726C248.566 58.8538 248.029 61.1004 247.627 63.1122C247.09 65.8618 246.621 68.5107 246.219 71.059C245.816 73.5403 245.615 75.5857 245.615 77.1951C245.615 79.7435 246.319 81.0176 247.728 81.0176C248.733 81.0176 249.974 80.0117 251.449 77.9999C252.992 75.988 254.601 72.9367 256.278 68.846C258.021 64.7552 259.698 59.7256 261.307 53.7572C261.844 51.7453 262.649 50.3035 263.722 49.4317C264.862 48.5599 266.538 48.124 268.751 48.124ZM240.988 131.012C242.664 131.012 244.542 129.067 246.621 125.178C248.7 121.288 250.779 114.817 252.858 105.763C247.694 110.122 243.939 114.079 241.591 117.633C239.311 121.254 238.171 124.406 238.171 127.089C238.171 128.229 238.372 129.168 238.775 129.905C239.244 130.643 239.982 131.012 240.988 131.012Z" fill="black"/>
</svg>